<svg version="1.1" id="Layer_1" xmlns="http://www.w3.org/2000/svg" xmlns:xlink="http://www.w3.org/1999/xlink" x="0px" y="0px"
	 width="100%" viewBox="0 0 1024 1024" enable-background="new 0 0 1024 1024" xml:space="preserve">
<path fill="#000000" opacity="1.000000" stroke="none" 
	d="
M1.000000,693.000000 
	C1.000000,521.307495 1.000000,349.614990 1.240601,177.609711 
	C5.545526,178.685806 7.971798,174.756088 11.457533,174.227417 
	C17.770611,173.269913 21.781128,169.224213 24.929691,164.046982 
	C31.707773,152.901642 41.114544,144.456909 51.940769,137.367905 
	C60.950569,131.468292 69.239464,124.539398 78.431717,118.859093 
	C84.219727,115.282433 90.460037,112.130119 95.246117,107.238960 
	C108.248528,93.951057 123.765182,85.902771 141.994095,82.210464 
	C151.639313,80.256813 160.656982,76.285782 166.893082,67.698166 
	C170.061340,63.335236 174.787567,60.650990 179.862900,58.669395 
	C185.291855,56.549736 190.632202,54.203838 196.020950,51.980259 
	C218.154999,42.847019 240.476334,38.128139 263.461853,49.145088 
	C264.057983,49.430809 264.714905,49.597454 265.353485,49.785725 
	C279.925232,54.082027 293.800140,59.966953 307.471039,66.648811 
	C318.610321,72.093277 330.253143,76.828987 343.473053,74.286415 
	C350.004211,73.030312 356.749176,73.829109 363.159729,76.229622 
	C376.409576,81.191185 389.728760,85.969818 402.944122,91.020599 
	C412.646545,94.728752 421.694946,99.833183 429.782318,106.279823 
	C437.932770,112.776741 446.237335,119.542915 445.683075,131.690720 
	C445.624115,132.982941 446.047913,134.335693 446.433472,135.603882 
	C451.531372,152.371536 454.960144,155.267014 471.895477,153.754700 
	C487.434906,152.367035 503.093048,154.577408 517.927612,157.591354 
	C539.195068,161.912292 560.303101,160.644455 581.498413,161.319656 
	C591.052551,161.624039 600.229309,159.280457 609.444214,156.674591 
	C622.567444,152.963501 636.200989,153.832855 649.693970,154.085403 
	C658.573975,154.251572 667.305298,153.576721 675.792542,150.629501 
	C688.406311,146.249344 695.220581,135.345108 703.239624,125.988892 
	C708.839478,119.455368 712.680603,111.412956 718.289490,104.888962 
	C727.737000,93.900032 736.898804,82.722672 745.760986,71.255325 
	C754.035461,60.548363 763.691467,60.896786 772.289673,71.485947 
	C772.814636,72.132454 773.412109,72.744911 773.812256,73.464203 
	C779.191101,83.132278 787.157654,87.389069 798.433960,88.323448 
	C813.738159,89.591576 821.552429,83.702370 820.924500,68.339188 
	C820.433472,56.328102 824.982788,47.038857 834.630493,40.037231 
	C838.672363,37.103954 842.402771,33.799137 846.108887,30.428236 
	C854.848083,22.479601 850.836060,12.173371 851.654907,2.768930 
	C851.701660,2.231384 850.578674,1.591983 850.000000,0.999992 
	C887.025818,1.000000 924.051697,1.000000 961.336609,1.265248 
	C960.349670,6.734334 960.928345,11.968527 961.610840,17.146461 
	C961.915283,19.456703 964.041870,20.592106 966.142761,21.364058 
	C970.762878,23.061625 975.519714,23.654947 980.345398,22.597141 
	C987.215637,21.091173 993.568115,22.970766 999.698853,25.606766 
	C1007.311096,28.879755 1007.117188,28.930096 1012.880676,23.364529 
	C1016.185120,20.173626 1020.102112,18.014521 1025.000000,20.000000 
	C1025.000000,319.025848 1025.000000,618.051697 1024.619019,917.591797 
	C1021.209045,918.968201 1018.060547,920.836060 1015.174561,920.493286 
	C1008.063416,919.648682 1003.946777,923.588074 1001.116699,928.751099 
	C998.313843,933.864319 994.771423,934.543457 989.959167,932.917175 
	C984.684631,931.134705 980.175415,932.309204 976.206543,936.133789 
	C973.932007,938.325562 971.619080,940.495544 969.165405,942.479980 
	C960.517334,949.474365 952.012573,956.703674 942.340576,962.273132 
	C935.717712,966.086914 928.651184,969.136658 922.070984,973.016418 
	C914.208801,977.651978 906.100952,982.256042 902.706665,991.608948 
	C900.465515,997.784424 896.137329,1002.148865 891.129028,1006.207092 
	C886.159119,1010.234192 880.724426,1013.271545 875.054810,1016.109009 
	C871.357910,1017.959290 867.796753,1020.334229 867.000000,1025.000000 
	C621.974182,1025.000000 376.948334,1025.000000 131.560211,1024.799561 
	C130.914978,1020.411133 128.390656,1017.640259 125.132294,1015.511963 
	C120.942924,1012.775452 116.536491,1010.410217 111.760735,1008.806519 
	C103.524246,1006.040527 95.560844,1002.839966 88.650742,997.276489 
	C85.432961,994.685852 83.456024,991.899414 83.012657,987.783813 
	C82.407173,982.163391 80.331573,977.157349 75.931892,973.334534 
	C73.167946,970.933044 70.205711,968.708313 67.727699,966.037598 
	C52.304546,949.414856 49.333702,941.935791 64.213074,924.585754 
	C76.512733,910.243713 74.720261,893.995544 69.241570,878.283569 
	C62.441536,858.782410 47.505875,844.656311 33.164909,830.510559 
	C28.201349,825.614502 25.005581,820.093689 23.211365,813.547302 
	C22.507223,810.978149 21.926323,808.371948 21.136072,805.830261 
	C19.901726,801.860168 17.587435,799.187805 13.033099,798.884705 
	C10.069017,798.687439 7.315664,797.268677 6.258455,794.434387 
	C4.278184,789.125488 4.116069,783.567017 6.743216,778.430664 
	C7.983975,776.004944 9.941053,773.491882 13.539416,775.558105 
	C16.266216,777.123962 17.588156,775.103821 18.565239,773.119324 
	C21.010830,768.152161 23.116259,762.947510 22.947245,757.356567 
	C22.532190,743.626465 24.916908,730.130371 25.901705,716.520691 
	C26.228209,712.008545 26.199301,707.525940 24.439285,703.226440 
	C22.240484,697.855042 18.735107,695.382935 12.949801,695.463501 
	C9.981307,695.504883 7.234385,695.069458 5.255129,692.692444 
	C3.573263,690.672546 2.283347,691.035461 1.000000,693.000000 
M214.641190,386.181946 
	C203.328751,394.447662 192.874954,403.775574 181.979996,412.557312 
	C167.236847,424.440887 156.071228,438.819397 150.093109,456.983215 
	C144.514908,473.931946 138.419220,490.661713 128.818665,505.868805 
	C123.640411,514.071045 119.410355,522.785339 116.085320,531.863098 
	C110.983101,545.792664 105.729706,559.634277 98.982491,572.874023 
	C96.598564,577.551941 95.522202,582.652283 95.755081,587.869995 
	C96.831512,611.987793 98.025146,636.100403 99.214409,660.213074 
	C100.856613,693.509705 105.905083,726.063599 119.368820,756.940796 
	C127.845886,776.381775 137.942001,794.679993 154.112381,808.836670 
	C181.957260,833.214050 213.737335,851.720337 247.444122,866.167419 
	C268.098022,875.019897 290.394165,880.793396 312.487244,885.369629 
	C351.515228,893.453613 390.823883,900.316895 430.314117,905.934448 
	C448.781097,908.561401 466.941406,912.776184 485.252441,916.208557 
	C527.242126,924.079224 569.499634,929.361450 612.316589,927.639709 
	C639.351807,926.552673 665.359375,920.618042 689.938599,908.906250 
	C724.013733,892.669739 752.748047,868.791016 781.536011,845.022888 
	C795.107422,833.818054 804.925171,819.039856 816.948608,806.364197 
	C839.436890,782.656067 856.608337,755.432251 871.400574,726.533569 
	C879.693298,710.332703 884.768616,692.770569 892.560791,676.364136 
	C900.253967,660.166260 905.608154,643.249756 908.768677,625.621033 
	C909.555420,621.232422 911.223389,617.322388 914.675354,614.359192 
	C917.986511,611.516846 918.991943,607.964233 918.787781,603.653137 
	C918.427002,596.034363 917.712708,588.276001 922.817688,581.578247 
	C923.462158,580.732666 923.498230,579.381531 923.696106,578.243713 
	C926.002502,564.979126 928.172485,551.689453 930.639099,538.454956 
	C931.462708,534.035522 932.028992,530.116882 928.199768,526.606506 
	C926.385986,524.943787 926.184692,522.138000 925.643066,519.676208 
	C922.243774,504.223480 918.552856,488.858948 912.297058,474.233459 
	C906.337219,460.299957 899.697571,446.584869 894.824036,432.274139 
	C884.676208,402.475891 869.331909,375.905090 848.544739,352.374603 
	C837.842163,340.259552 827.708801,327.379211 812.557373,320.433441 
	C799.258057,314.336700 785.238037,309.922791 771.940979,303.756195 
	C769.892212,302.806061 767.399414,302.808685 765.109375,302.384796 
	C761.186279,301.658630 757.132507,301.350708 753.357666,300.158051 
	C727.882751,292.109406 701.641846,289.614502 675.121338,288.210876 
	C661.210571,287.474609 647.571045,284.569916 633.351074,285.682495 
	C619.452148,286.769928 605.435242,286.760284 591.471436,287.877625 
	C572.916870,289.362335 554.315796,292.069183 535.671204,289.281067 
	C528.831055,288.258179 522.620850,289.023651 516.329834,291.925049 
	C512.463135,293.708344 508.090454,294.537170 503.861053,295.366974 
	C484.067444,299.250488 463.904541,300.227325 443.947479,302.818176 
	C410.197998,307.199615 377.361969,315.887115 344.569336,324.674042 
	C322.461548,330.597931 301.790436,340.455750 280.424530,348.414459 
	C256.595764,357.290588 235.111069,370.099243 214.641190,386.181946 
M234.941238,193.797867 
	C236.308685,180.021286 239.894150,166.677795 242.815735,153.202454 
	C243.365662,150.665955 244.609299,147.409912 242.043182,145.740387 
	C239.138184,143.850403 237.333588,147.290680 235.393661,148.758530 
	C209.243271,168.545166 189.298187,193.743500 172.226776,221.446274 
	C163.179794,236.127350 155.638580,251.409790 152.264648,268.496033 
	C146.597290,297.196655 151.811996,324.733124 161.132095,351.820282 
	C162.542328,355.918854 163.982147,356.053375 167.483765,352.431702 
	C177.875275,341.683838 189.929382,333.157532 202.746246,325.602814 
	C214.361771,318.756256 225.806885,311.609985 237.569229,305.028534 
	C242.006393,302.545746 242.650620,300.002472 241.051895,295.423492 
	C235.703079,280.103790 232.673141,264.332733 232.501556,248.019119 
	C232.314072,230.193375 233.377930,212.438263 234.941238,193.797867 
M859.245972,134.477097 
	C859.940247,137.217285 860.663452,139.950500 861.323975,142.698807 
	C864.995117,157.974564 862.885864,173.098724 860.391846,188.280884 
	C857.043213,208.665619 853.277100,228.867676 844.799011,247.940964 
	C840.747498,257.055664 838.081787,266.707153 835.876709,276.483398 
	C834.580444,282.230377 836.030945,286.502167 840.498535,290.153656 
	C849.137146,297.214264 857.638184,304.442993 866.253296,311.532684 
	C870.366760,314.917816 874.510315,318.282898 878.822327,321.405701 
	C883.673828,324.919159 885.587341,324.519897 889.035645,319.522888 
	C890.828491,316.924835 892.433350,314.180298 893.932068,311.398926 
	C902.360840,295.756500 912.341614,280.863739 917.191284,263.483154 
	C917.900635,260.941193 918.242004,258.204956 919.426025,255.904770 
	C922.626038,249.688385 924.267273,243.089066 923.741394,236.243744 
	C923.067932,227.477097 924.414612,218.769165 922.337341,209.825943 
	C920.948120,203.844681 920.716675,197.147964 919.387634,190.985443 
	C916.016602,175.354218 910.395386,160.680801 897.140991,150.323792 
	C892.312073,146.550491 887.616089,142.601181 882.698730,138.948563 
	C874.290344,132.702744 866.741943,125.224770 856.763123,120.727501 
	C855.544617,125.460953 857.777405,129.502823 859.245972,134.477097 
M606.030762,247.560440 
	C600.585510,251.526108 594.212646,254.018402 590.284424,260.249237 
	C581.976440,273.426971 586.491028,273.727997 598.764343,274.779785 
	C606.446350,275.438080 613.992493,272.249023 621.549072,272.470795 
	C638.441406,272.966614 653.925720,267.103027 669.874695,263.266083 
	C672.778442,262.567505 675.695374,261.742889 678.429382,260.565643 
	C681.977295,259.037994 683.661987,256.468048 681.475891,252.584930 
	C680.360352,250.603333 679.841980,248.372543 680.707642,246.325394 
	C682.650146,241.732025 681.743225,237.176361 681.138428,232.556717 
	C680.032837,224.110947 676.567688,220.252182 668.155212,218.402985 
	C661.765320,216.998413 655.319763,216.692017 648.784363,217.231339 
	C642.801941,217.725006 637.812256,219.888153 632.827820,223.408768 
	C623.080994,230.293152 614.659241,238.471939 606.030762,247.560440 
M870.486023,820.948914 
	C860.741638,834.420776 848.098572,845.026550 835.521179,855.750122 
	C836.654297,855.849915 837.448059,855.584961 838.083008,855.108582 
	C849.509827,846.534912 860.247986,837.116333 870.534241,827.251831 
	C889.734497,808.839111 907.102661,788.783081 922.527710,767.072449 
	C931.297424,754.729126 939.403625,741.963074 946.573669,728.638000 
	C956.590210,710.023010 964.879578,690.636108 971.141296,670.435425 
	C974.326416,660.160278 976.951172,649.700073 978.726685,639.088318 
	C980.802795,626.679932 982.335205,614.188416 983.310364,601.630066 
	C983.976501,593.050720 983.992249,584.568726 981.707336,575.818420 
	C980.104126,577.455017 979.709961,579.105469 979.480042,580.690125 
	C977.880798,591.713623 975.892639,602.693542 976.111084,613.914612 
	C976.195312,618.244263 975.841248,622.629456 973.872742,626.591125 
	C970.428406,633.522827 968.303650,640.844788 967.302002,648.465820 
	C965.886719,659.233276 963.905762,669.815491 959.412842,679.810791 
	C955.519775,688.471741 952.245056,697.376221 949.290955,706.404602 
	C940.383667,733.627502 928.144714,758.990417 907.173828,779.179138 
	C893.933899,791.925293 881.606812,805.414856 870.486023,820.948914 
M271.633545,234.661469 
	C270.471466,227.953598 269.368469,221.234543 268.102905,214.546265 
	C267.811523,213.006195 267.585083,210.799149 265.464874,210.815933 
	C263.153809,210.834244 263.497345,213.061920 263.251862,214.634659 
	C259.502808,238.654037 262.296509,262.333466 266.938995,285.921082 
	C267.693420,289.754089 269.818665,290.635559 273.463104,289.654205 
	C281.004669,287.623535 282.565338,286.420105 281.258362,281.849884 
	C276.909760,266.643860 273.806946,251.196655 271.633545,234.661469 
M105.561821,820.760925 
	C108.432564,820.643372 110.235718,822.218140 111.825180,824.417603 
	C113.761185,827.096558 115.927917,829.592346 117.851898,832.303894 
	C119.696594,834.903625 122.742775,836.650757 125.260910,838.772644 
	C118.212280,830.237183 111.015266,821.984070 105.044716,812.725952 
	C101.146927,806.682007 100.066544,799.226074 95.484627,793.594849 
	C90.148521,787.036743 87.076279,779.739197 85.135414,771.423340 
	C81.959106,757.813843 74.456215,745.640869 70.593010,732.177734 
	C70.532433,731.966614 70.098091,731.862793 69.784599,731.677124 
	C69.009254,732.819092 66.986221,733.094849 67.585228,735.346313 
	C69.186661,735.864929 70.195213,736.888672 70.815666,738.847412 
	C73.018425,745.801270 73.065941,753.374207 76.859123,759.861145 
	C77.926666,761.686768 75.548813,764.078491 77.363449,765.558044 
	C81.815628,769.187805 81.767342,774.955750 84.366364,779.448425 
	C86.392014,782.950012 86.208832,788.410278 88.443741,790.504333 
	C93.995010,795.706055 96.133385,802.658875 99.831512,808.693970 
	C101.311783,811.109680 101.958061,813.822998 104.855263,814.824951 
	C104.809212,817.009277 103.211777,818.975952 105.561821,820.760925 
M802.384705,255.915771 
	C803.256714,257.198761 804.802307,258.210022 803.114319,260.119080 
	C801.191162,262.294098 800.729065,264.931854 803.929382,266.170074 
	C807.104309,267.398499 808.909668,265.257477 809.593323,262.298370 
	C811.126465,255.662384 811.828857,248.923004 811.782349,242.112457 
	C811.776428,241.252884 811.399292,240.501663 809.688293,240.262329 
	C806.615723,244.772018 804.462769,250.054428 802.384705,255.915771 
M373.287842,943.090820 
	C368.685059,943.090332 364.169586,943.499390 359.815002,940.866211 
	C356.818756,939.054321 352.794373,939.762268 348.994049,941.341370 
	C362.636475,943.745422 375.849335,947.478943 389.664215,946.160706 
	C385.032806,942.064636 379.363586,943.878601 373.287842,943.090820 
M183.636093,883.981689 
	C181.397537,882.728088 179.158966,881.474487 176.920410,880.220886 
	C188.509521,888.967773 201.387680,895.350952 214.665100,901.016907 
	C204.534256,895.457458 194.403427,889.897949 183.636093,883.981689 
M291.090759,142.153824 
	C289.979614,149.052734 288.640198,155.944260 290.317383,162.939758 
	C291.417480,155.274323 295.112274,147.872726 293.039459,139.883698 
	C291.491913,139.813019 291.424164,140.712982 291.090759,142.153824 
M263.616516,919.440735 
	C260.624084,918.778381 257.631683,918.115967 254.639252,917.453613 
	C258.442322,920.191589 262.569885,921.705139 267.240173,922.166992 
	C267.052612,919.878418 265.308075,920.254333 263.616516,919.440735 
z"/>
<path fill="#000000" opacity="1.000000" stroke="none" 
	d="
M461.009033,873.187988 
	C429.276978,873.077576 399.641144,865.331604 370.520020,854.759338 
	C354.329193,848.881287 338.602875,842.140808 324.217407,832.620178 
	C299.228149,816.081482 286.096283,792.772522 283.420532,762.865173 
	C280.366821,728.732849 291.044220,699.969543 314.910248,675.820923 
	C320.462189,670.203125 324.864746,663.778748 329.256378,657.289978 
	C337.102264,645.697327 346.772766,635.968750 358.800476,628.637146 
	C365.057373,624.823181 371.312073,620.963745 377.268280,616.705872 
	C398.366516,601.623596 422.117493,592.959106 447.042175,586.715881 
	C459.511261,583.592590 472.047882,581.223999 484.798126,579.916199 
	C495.728882,578.795044 506.320496,581.348999 516.956421,583.288635 
	C557.976257,590.769104 597.664124,603.375793 637.618286,614.897217 
	C671.602051,624.697021 697.607117,645.607178 716.364685,675.246582 
	C725.438416,689.584229 729.977844,706.223633 737.018860,721.632874 
	C742.202515,732.977295 740.292053,745.341980 737.370483,757.379761 
	C732.877930,775.891235 725.452209,792.935486 714.410461,808.529541 
	C701.648682,826.552856 683.608765,837.069885 663.941772,845.564392 
	C633.654053,858.646240 601.932922,865.262451 569.106445,867.505249 
	C553.855042,868.547302 538.699951,870.934631 523.458984,872.207336 
	C502.846313,873.928528 482.161133,873.007751 461.009033,873.187988 
M425.836365,626.416687 
	C404.590759,634.259521 385.117828,645.300232 366.771271,658.533447 
	C357.097473,665.511169 349.929016,674.044495 346.599182,685.603882 
	C344.758606,691.993164 341.166107,697.345825 336.731567,702.203979 
	C330.174835,709.387024 324.608063,717.244141 320.674011,726.181335 
	C315.308411,738.370728 311.297089,750.849915 313.859406,764.414062 
	C317.931885,785.972717 330.557495,801.406250 348.988007,812.461487 
	C357.874817,817.792053 367.613800,821.329895 377.206024,825.153992 
	C408.447174,837.608765 441.059998,843.881104 474.481506,845.522644 
	C503.598206,846.952698 532.775208,846.569397 561.819031,843.617371 
	C585.369385,841.223755 608.496765,836.913818 630.702637,828.111877 
	C662.291382,815.590759 701.030212,773.747192 699.232727,729.517395 
	C698.480164,711.001343 697.545410,692.894287 687.588379,676.567749 
	C686.888306,675.419861 686.123596,674.119507 686.617676,672.805725 
	C687.933167,669.307434 685.953674,667.105164 683.819275,664.909058 
	C677.087891,657.982910 669.377075,652.313782 660.017700,649.833374 
	C634.058777,642.953918 609.200195,632.804504 583.674255,624.647034 
	C560.246826,617.160339 536.484924,611.302185 511.791718,611.580017 
	C482.689850,611.907532 454.093781,616.118164 425.836365,626.416687 
z"/>
<path fill="#000000" opacity="1.000000" stroke="none" 
	d="
M757.176636,534.520264 
	C759.943726,515.174866 767.719727,505.460571 783.918457,501.485077 
	C791.685791,499.578796 799.462219,500.229858 806.864624,503.409912 
	C814.922485,506.871552 816.747559,514.019165 817.329407,521.800598 
	C818.153870,532.826721 816.077209,543.658447 815.083252,554.560791 
	C814.717529,558.571594 814.901978,562.550598 815.512024,566.499878 
	C817.505188,579.403503 812.161438,589.438354 800.246338,595.164734 
	C785.622620,602.193115 763.817322,598.401794 759.235535,575.932861 
	C756.457092,562.307251 754.626648,548.776062 757.176636,534.520264 
z"/>
<path fill="#000000" opacity="1.000000" stroke="none" 
	d="
M168.658081,586.141296 
	C161.097000,570.525146 161.274521,555.327332 169.044601,540.250244 
	C173.691055,531.234314 178.359222,522.227661 183.169235,513.298523 
	C186.744568,506.661407 188.715958,505.978668 196.042511,507.150879 
	C201.282654,507.989258 206.587448,508.487823 211.881607,508.908997 
	C219.231995,509.493774 224.026688,513.169495 225.915482,520.281067 
	C229.167694,532.526001 231.015228,544.999512 231.330338,557.672180 
	C231.464691,563.075745 228.969696,567.539246 224.751312,570.496216 
	C215.931427,576.678772 209.685104,584.374756 207.543701,595.167175 
	C207.138916,597.207214 205.872299,599.158081 204.697128,600.949219 
	C199.699066,608.567017 191.652649,610.192444 183.980118,605.268250 
	C176.840714,600.686157 172.526566,593.828247 168.658081,586.141296 
z"/>
<path fill="#000000" opacity="1.000000" stroke="none" 
	d="
M587.139038,745.682556 
	C584.168884,739.466248 582.107483,733.333923 580.546387,727.013184 
	C579.616455,723.248291 577.852661,719.782715 575.394897,716.835754 
	C572.527283,713.397278 573.315674,710.713928 576.035217,707.668945 
	C587.522522,694.806946 601.663757,691.994507 617.803528,696.230225 
	C629.935547,699.414062 640.658875,705.189758 650.159973,713.360901 
	C655.038452,717.556580 658.106445,722.444519 658.677124,729.097290 
	C659.536621,739.117065 659.746887,749.092468 657.279602,758.859375 
	C655.828979,764.601685 653.515137,770.178650 645.745728,769.531128 
	C644.318787,769.412231 643.345337,770.476135 642.517883,771.595825 
	C641.432068,773.065186 640.355957,774.556030 639.130127,775.905457 
	C632.358521,783.359558 628.167236,784.208374 619.415588,779.334045 
	C605.361938,771.506714 594.737976,760.278748 587.139038,745.682556 
z"/>
<path fill="#000000" opacity="1.000000" stroke="none" 
	d="
M388.535522,702.554626 
	C392.036072,698.517090 395.313507,694.755127 398.554291,690.961975 
	C400.209595,689.024475 402.215118,688.353638 404.762146,688.624634 
	C415.663879,689.784241 426.597778,690.667175 437.478149,691.993652 
	C444.802734,692.886658 447.319855,696.157288 447.136139,704.535400 
	C446.932556,713.820374 444.996216,722.807678 439.294983,730.383789 
	C431.596497,740.613892 423.778076,750.788269 414.669922,759.837341 
	C405.346527,769.100342 394.192291,772.434387 381.290375,769.391174 
	C366.785553,765.969910 359.170258,751.659729 364.573029,737.753601 
	C368.915924,726.575500 376.403625,717.382141 383.753387,708.126953 
	C385.201111,706.303955 386.779236,704.584534 388.535522,702.554626 
z"/>
</svg>